<?xml version="1.0" encoding="utf-8"?>
<!-- Generator: Adobe Illustrator 16.0.0, SVG Export Plug-In . SVG Version: 6.00 Build 0)  -->
<!DOCTYPE svg PUBLIC "-//W3C//DTD SVG 1.1//EN" "http://www.w3.org/Graphics/SVG/1.1/DTD/svg11.dtd">
<svg version="1.1" id="Capa_1" xmlns="http://www.w3.org/2000/svg" xmlns:xlink="http://www.w3.org/1999/xlink" x="0px" y="0px"
	 width="841.89px" height="595.28px" viewBox="0 0 841.89 595.28" style="enable-background:new 0 0 841.89 595.28;"
	 xml:space="preserve">
<style type="text/css">
<![CDATA[
	.st0{enable-background:new    ;}
	.st1{fill:#9F9F9F;stroke:#1E1E1C;stroke-width:1.76;stroke-miterlimit:10;}
	.st2{fill:url(#SVGID_1_);stroke:#1E1E1C;stroke-width:1.7915;stroke-miterlimit:10;}
	.st3{fill:url(#SVGID_2_);}
	.st4{fill:url(#SVGID_3_);}
	.st5{fill:url(#SVGID_4_);}
	.st6{fill:url(#SVGID_5_);}
	.st7{fill:url(#SVGID_6_);}
	.st8{fill:url(#SVGID_7_);}
	.st9{fill:url(#SVGID_8_);}
	.st10{fill:url(#SVGID_9_);}
	.st11{fill:#696968;}
	.st12{fill:#6F6F6E;}
	.st13{fill:#D60F53;}
	.st14{fill:url(#SVGID_10_);}
	.st15{fill:url(#SVGID_11_);}
]]>
</style>
<linearGradient id="SVGID_1_" gradientUnits="userSpaceOnUse" x1="230.2349" y1="297.9102" x2="611.2754" y2="297.9102">
	<stop  offset="0" style="stop-color:#F69F09"/>
	<stop  offset="0.5108" style="stop-color:#E32924"/>
	<stop  offset="1" style="stop-color:#8F1F69"/>
</linearGradient>
<path class="st2" d="M582.025,273.44c-14.1,0-25.871,8.3-28.641,19.35h-48.35c-2.77-11.05-14.541-19.35-28.641-19.35
	s-25.869,8.3-28.629,19.35h-51.841c-2.88-10.92-14.58-19.09-28.57-19.09c-13.99,0-25.68,8.17-28.56,19.09h-50.67
	c-0.22-0.88-0.49-1.73-0.83-2.57c-3.82-9.74-14.83-16.78-27.81-16.78c-16.15,0-29.25,10.9-29.25,24.35
	c0,13.44,13.1,24.341,29.25,24.341c12.98,0,23.98-7.031,27.81-16.761c0.27-0.681,0.5-1.37,0.7-2.08h50.8
	c2.88,10.92,14.57,19.091,28.56,19.091c13.99,0,25.68-8.171,28.57-19.091h51.97c3,10.79,14.621,18.841,28.5,18.841
	c13.881,0,25.51-8.051,28.51-18.841h48.611c3,10.79,14.629,18.841,28.51,18.841c16.15,0,29.25-10.9,29.25-24.341
	C611.275,284.34,598.176,273.44,582.025,273.44z M344.255,297.91c0-10.47,10.2-18.95,22.78-18.95c12.59,0,22.79,8.48,22.79,18.95
	c0,10.471-10.2,18.96-22.79,18.96C354.455,316.87,344.255,308.381,344.255,297.91z M498.035,306.18
	c-3.801,7.01-12.281,11.9-22.109,11.9c-9.82,0-18.301-4.891-22.102-11.9c-1.369-2.52-2.129-5.319-2.129-8.27
	c0-1.5,0.189-2.96,0.57-4.37c2.41-9.03,12.109-15.8,23.66-15.8c11.559,0,21.26,6.77,23.67,15.8c0.369,1.41,0.568,2.87,0.568,4.37
	C500.164,300.86,499.404,303.66,498.035,306.18z M558.574,297.91c0-10.47,10.201-18.95,22.781-18.95
	c12.59,0,22.789,8.48,22.789,18.95c0,10.471-10.199,18.96-22.789,18.96C568.775,316.87,558.574,308.381,558.574,297.91z"/>
<linearGradient id="SVGID_2_" gradientUnits="userSpaceOnUse" x1="247.4463" y1="317.3867" x2="269.7805" y2="282.3765" gradientTransform="matrix(1 0 0 -1 0.0449 596.7598)">
	<stop  offset="0" style="stop-color:#F6F6F6"/>
	<stop  offset="0.4601" style="stop-color:#F5F5F5"/>
	<stop  offset="0.6258" style="stop-color:#F0F0F0"/>
	<stop  offset="0.744" style="stop-color:#E8E7E7"/>
	<stop  offset="0.8395" style="stop-color:#DBDBDB"/>
	<stop  offset="0.9204" style="stop-color:#CBCACA"/>
	<stop  offset="0.9917" style="stop-color:#B6B6B5"/>
	<stop  offset="1" style="stop-color:#B3B2B2"/>
</linearGradient>
<path class="st3" d="M283.556,297.911c0,2.808-0.693,5.482-1.942,7.912c-3.705,7.201-12.3,12.259-22.294,12.259
	c-13.365,0-24.236-9.048-24.236-20.17c0-11.119,10.871-20.167,24.236-20.167c11.41,0,20.998,6.593,23.561,15.438
	C283.325,294.699,283.556,296.282,283.556,297.911z"/>
<linearGradient id="SVGID_3_" gradientUnits="userSpaceOnUse" x1="248.1528" y1="316.2822" x2="269.1551" y2="283.3601" gradientTransform="matrix(1 0 0 -1 0.0449 596.7598)">
	<stop  offset="0" style="stop-color:#B3B2B2"/>
	<stop  offset="0.0669" style="stop-color:#C0C0BF"/>
	<stop  offset="0.1957" style="stop-color:#D5D5D4"/>
	<stop  offset="0.3374" style="stop-color:#E3E3E2"/>
	<stop  offset="0.4969" style="stop-color:#EFEEEE"/>
	<stop  offset="0.6887" style="stop-color:#F4F4F4"/>
	<stop  offset="1" style="stop-color:#F6F6F6"/>
</linearGradient>
<ellipse class="st4" cx="259.319" cy="297.912" rx="22.782" ry="18.957"/>
<linearGradient id="SVGID_4_" gradientUnits="userSpaceOnUse" x1="567.1465" y1="314.7109" x2="594.3654" y2="282.5433">
	<stop  offset="0" style="stop-color:#F6F6F6"/>
	<stop  offset="0.4601" style="stop-color:#F5F5F5"/>
	<stop  offset="0.6258" style="stop-color:#F0F0F0"/>
	<stop  offset="0.744" style="stop-color:#E8E7E7"/>
	<stop  offset="0.8395" style="stop-color:#DBDBDB"/>
	<stop  offset="0.9204" style="stop-color:#CBCACA"/>
	<stop  offset="0.9917" style="stop-color:#B6B6B5"/>
	<stop  offset="1" style="stop-color:#B3B2B2"/>
</linearGradient>
<path class="st5" d="M581.365,277.74c-11.561,0-21.26,6.78-23.67,15.8c-0.381,1.41-0.57,2.87-0.57,4.37c0,2.95,0.76,5.75,2.129,8.27
	c3.801,7.01,12.281,11.9,22.111,11.9c13.359,0,24.23-9.05,24.23-20.17S594.725,277.74,581.365,277.74z M581.355,316.87
	c-12.58,0-22.781-8.489-22.781-18.96c0-10.47,10.201-18.95,22.781-18.95c12.59,0,22.789,8.48,22.789,18.95
	C604.145,308.381,593.945,316.87,581.355,316.87z"/>
<linearGradient id="SVGID_5_" gradientUnits="userSpaceOnUse" x1="353.5347" y1="314.2451" x2="380.076" y2="282.1485">
	<stop  offset="0" style="stop-color:#F6F6F6"/>
	<stop  offset="0.4601" style="stop-color:#F5F5F5"/>
	<stop  offset="0.6258" style="stop-color:#F0F0F0"/>
	<stop  offset="0.744" style="stop-color:#E8E7E7"/>
	<stop  offset="0.8395" style="stop-color:#DBDBDB"/>
	<stop  offset="0.9204" style="stop-color:#CBCACA"/>
	<stop  offset="0.9917" style="stop-color:#B6B6B5"/>
	<stop  offset="1" style="stop-color:#B3B2B2"/>
</linearGradient>
<path class="st6" d="M390.705,293.54c-2.41-9.02-12.11-15.8-23.66-15.8c-11.56,0-21.26,6.78-23.67,15.8
	c-0.38,1.41-0.58,2.87-0.58,4.37c0,2.95,0.77,5.75,2.14,8.27c3.8,7.01,12.28,11.9,22.11,11.9c9.82,0,18.3-4.891,22.1-11.9
	c1.37-2.52,2.13-5.319,2.13-8.27C391.275,296.41,391.085,294.95,390.705,293.54z M367.035,316.87c-12.58,0-22.78-8.489-22.78-18.96
	c0-10.47,10.2-18.95,22.78-18.95c12.59,0,22.79,8.48,22.79,18.95C389.825,308.381,379.625,316.87,367.035,316.87z"/>
<g class="st0">
	<path class="st13" d="M263.665,303.65c-0.27-0.23-0.62-0.34-1.04-0.34l-1.58,0.02c-0.01-0.439-0.06-1.01-0.14-1.699
		c-0.08-0.691-0.12-1.281-0.12-1.771c0-0.94,0.12-2.36,0.36-4.24c0.24-1.89,0.36-3.31,0.36-4.26c0-0.28-0.01-0.7-0.05-1.26
		c-0.03-0.56-0.05-0.97-0.05-1.25c0-0.19,0.03-0.48,0.09-0.86c0.06-0.38,0.09-0.66,0.09-0.86c0-0.64-0.34-0.96-1.01-0.96
		c-0.8,0-1.64,0.37-2.53,1.12c-0.99,0.7-1.76,1.21-2.3,1.52c-0.86,0.56-1.29,1.04-1.29,1.43c0,0.33,0.15,0.62,0.44,0.87
		c0.3,0.25,0.65,0.37,1.05,0.37c0.37,0,1.23-0.43,2.57-1.3c0.01,1.1-0.1,2.72-0.32,4.85c-0.23,2.16-0.34,3.77-0.34,4.83
		c0,0.399,0.04,0.989,0.13,1.771c0.08,0.789,0.12,1.379,0.12,1.779l-0.61-0.029l-0.72-0.011c-1.58,0-2.37,0.42-2.37,1.271
		c0,0.479,0.26,0.799,0.77,0.949c0.28,0.07,0.77,0.11,1.48,0.11l2.97,0.021h3c0.42,0,0.77-0.121,1.04-0.34
		c0.28-0.23,0.42-0.521,0.42-0.871C264.085,304.17,263.945,303.881,263.665,303.65z"/>
</g>
<path class="st1" d="M582.229,273.536c-14.1,0-25.869,8.3-28.641,19.351h-48.35c-2.77-11.051-14.539-19.351-28.639-19.351
	c-14.102,0-25.871,8.3-28.631,19.351h-51.84c-2.88-10.92-14.58-19.09-28.57-19.09c-13.99,0-25.68,8.17-28.56,19.09h-49.872
	c-0.28,0.163-0.577,0.296-0.892,0.402c-0.031,0.512-0.068,1.022-0.127,1.531c0.102,0.639,0.178,1.279,0.211,1.926
	c0.03,0.42,0.04,0.84,0.04,1.261c0,1.275-0.15,2.515-0.392,3.73c0.208,0.52,0.338,1.074,0.381,1.639h50.651
	c2.88,10.932,14.57,19.102,28.56,19.102c13.99,0,25.68-8.17,28.57-19.102H448.1c3,10.801,14.619,18.842,28.5,18.842
	c13.889,0,25.51-8.041,28.51-18.842h48.609c3,10.801,14.631,18.842,28.51,18.842c16.16,0,29.25-10.9,29.25-24.341
	C611.479,284.436,598.389,273.536,582.229,273.536z"/>
<linearGradient id="SVGID_6_" gradientUnits="userSpaceOnUse" x1="568" y1="315.6465" x2="595.2173" y2="283.4807" gradientTransform="matrix(1 0 0 -1 0.0449 596.7598)">
	<stop  offset="0" style="stop-color:#F6F6F6"/>
	<stop  offset="0.4601" style="stop-color:#F5F5F5"/>
	<stop  offset="0.6258" style="stop-color:#F0F0F0"/>
	<stop  offset="0.744" style="stop-color:#E8E7E7"/>
	<stop  offset="0.8395" style="stop-color:#DBDBDB"/>
	<stop  offset="0.9204" style="stop-color:#CBCACA"/>
	<stop  offset="0.9917" style="stop-color:#B6B6B5"/>
	<stop  offset="1" style="stop-color:#B3B2B2"/>
</linearGradient>
<path class="st7" d="M606.494,297.911c0,11.122-10.875,20.171-24.234,20.171c-9.828,0-18.307-4.895-22.109-11.904
	c-1.371-2.522-2.131-5.32-2.131-8.267c0-1.5,0.197-2.965,0.574-4.373c2.406-9.023,12.107-15.795,23.666-15.795
	C595.619,277.744,606.494,286.793,606.494,297.911z"/>
<linearGradient id="SVGID_7_" gradientUnits="userSpaceOnUse" x1="568.8457" y1="314.6436" x2="594.4405" y2="284.3954" gradientTransform="matrix(1 0 0 -1 0.0449 596.7598)">
	<stop  offset="0" style="stop-color:#B3B2B2"/>
	<stop  offset="0.0259" style="stop-color:#B8B8B6"/>
	<stop  offset="0.1898" style="stop-color:#CFCECE"/>
	<stop  offset="0.3625" style="stop-color:#E0E0E0"/>
	<stop  offset="0.5459" style="stop-color:#ECECEC"/>
	<stop  offset="0.7471" style="stop-color:#F4F4F4"/>
	<stop  offset="1" style="stop-color:#F6F6F6"/>
</linearGradient>
<ellipse class="st8" cx="582.258" cy="297.912" rx="22.781" ry="18.957"/>
<linearGradient id="SVGID_8_" gradientUnits="userSpaceOnUse" x1="353.3867" y1="315.1816" x2="379.9287" y2="283.0843" gradientTransform="matrix(1 0 0 -1 0.0449 596.7598)">
	<stop  offset="0" style="stop-color:#F6F6F6"/>
	<stop  offset="0.4601" style="stop-color:#F5F5F5"/>
	<stop  offset="0.6258" style="stop-color:#F0F0F0"/>
	<stop  offset="0.744" style="stop-color:#E8E7E7"/>
	<stop  offset="0.8395" style="stop-color:#DBDBDB"/>
	<stop  offset="0.9204" style="stop-color:#CBCACA"/>
	<stop  offset="0.9917" style="stop-color:#B6B6B5"/>
	<stop  offset="1" style="stop-color:#B3B2B2"/>
</linearGradient>
<path class="st9" d="M391.175,297.911c0,2.946-0.761,5.744-2.13,8.267c-3.804,7.01-12.283,11.904-22.106,11.904
	c-9.827,0-18.307-4.895-22.106-11.904c-1.373-2.522-2.135-5.32-2.135-8.267c0-1.5,0.198-2.965,0.574-4.373
	c2.409-9.023,12.107-15.795,23.667-15.795c11.556,0,21.254,6.771,23.663,15.795C390.979,294.946,391.175,296.411,391.175,297.911z"
	/>
<linearGradient id="SVGID_9_" gradientUnits="userSpaceOnUse" x1="354.1895" y1="314.207" x2="379.1503" y2="284.0217" gradientTransform="matrix(1 0 0 -1 0.0449 596.7598)">
	<stop  offset="0" style="stop-color:#B3B2B2"/>
	<stop  offset="0.0721" style="stop-color:#C2C1C1"/>
	<stop  offset="0.1939" style="stop-color:#D6D6D6"/>
	<stop  offset="0.3293" style="stop-color:#E4E4E3"/>
	<stop  offset="0.4836" style="stop-color:#EFEEEE"/>
	<stop  offset="0.6729" style="stop-color:#F4F4F4"/>
	<stop  offset="1" style="stop-color:#F6F6F6"/>
</linearGradient>
<ellipse class="st10" cx="366.937" cy="297.912" rx="22.782" ry="18.957"/>
<linearGradient id="SVGID_10_" gradientUnits="userSpaceOnUse" x1="463.6123" y1="315.8711" x2="488.7692" y2="283.3513" gradientTransform="matrix(1 0 0 -1 0.0449 596.7598)">
	<stop  offset="0" style="stop-color:#F6F6F6"/>
	<stop  offset="0.4601" style="stop-color:#F5F5F5"/>
	<stop  offset="0.6258" style="stop-color:#F0F0F0"/>
	<stop  offset="0.744" style="stop-color:#E8E7E7"/>
	<stop  offset="0.8395" style="stop-color:#DBDBDB"/>
	<stop  offset="0.9204" style="stop-color:#CBCACA"/>
	<stop  offset="0.9917" style="stop-color:#B6B6B5"/>
	<stop  offset="1" style="stop-color:#B3B2B2"/>
</linearGradient>
<path class="st14" d="M501.064,297.911c0,2.947-0.762,5.745-2.131,8.267c-3.799,7.01-12.277,11.903-22.105,11.903
	s-18.307-4.894-22.105-11.903c-1.369-2.522-2.131-5.32-2.131-8.267c0-1.5,0.195-2.965,0.572-4.372
	c2.41-9.024,12.105-15.795,23.664-15.795s21.254,6.771,23.662,15.795C500.867,294.946,501.064,296.411,501.064,297.911z"/>
<linearGradient id="SVGID_11_" gradientUnits="userSpaceOnUse" x1="464.3984" y1="314.8574" x2="488.0561" y2="284.2756" gradientTransform="matrix(1 0 0 -1 0.0449 596.7598)">
	<stop  offset="0" style="stop-color:#B3B2B2"/>
	<stop  offset="0.0669" style="stop-color:#C0C0BF"/>
	<stop  offset="0.1957" style="stop-color:#D5D5D4"/>
	<stop  offset="0.3374" style="stop-color:#E3E3E2"/>
	<stop  offset="0.4969" style="stop-color:#EFEEEE"/>
	<stop  offset="0.6887" style="stop-color:#F4F4F4"/>
	<stop  offset="1" style="stop-color:#F6F6F6"/>
</linearGradient>
<ellipse class="st15" cx="476.828" cy="297.912" rx="22.781" ry="18.957"/>
<g class="st0">
	<path class="st11" d="M475.572,306.836c-1.514,0-2.873-0.264-4.076-0.789c-1.354-0.609-2.266-1.466-2.738-2.568
		c-0.059-0.15-0.09-0.297-0.09-0.438c0-0.334,0.152-0.612,0.459-0.833s0.66-0.332,1.061-0.332s0.748,0.154,1.037,0.463l0.691,0.865
		c0.361,0.408,0.848,0.717,1.461,0.92c0.611,0.205,1.342,0.308,2.195,0.308c1.092,0,2.051-0.284,2.873-0.853
		c0.871-0.601,1.309-1.336,1.309-2.204c0-1.261-0.557-2.269-1.67-3.02c-0.982-0.651-2.287-1.048-3.91-1.19
		c-1.113-0.092-1.67-0.467-1.67-1.127c0-0.493,0.436-0.869,1.309-1.127l3.594-0.739c0.693-0.209,1.215-0.491,1.564-0.846
		c0.352-0.355,0.531-0.787,0.541-1.297c0.021-0.735-0.32-1.328-1.021-1.779c-0.732-0.468-1.76-0.702-3.084-0.702
		c-0.682,0-1.344,0.138-1.984,0.414l-1.701,0.89c-0.33,0.175-0.596,0.263-0.797,0.263c-0.4,0-0.744-0.127-1.029-0.382
		s-0.43-0.545-0.43-0.871c0-0.66,0.768-1.294,2.303-1.904c1.332-0.543,2.432-0.814,3.293-0.814c2.156,0,3.865,0.397,5.129,1.19
		c1.354,0.852,2.031,2.067,2.031,3.646c0,1.963-0.953,3.258-2.857,3.884c-0.172,0.059-0.367,0.118-0.588,0.176
		c1.334,0.409,2.332,1.021,2.994,1.835c0.66,0.814,0.992,1.831,0.992,3.051c0,1.646-0.697,3.042-2.09,4.19
		C479.277,306.262,477.578,306.836,475.572,306.836z"/>
</g>
<g class="st0">
	<path class="st11" d="M585.662,301.02v4.636c0,0.776-0.455,1.165-1.367,1.165c-1.063,0-1.596-0.605-1.596-1.816
		c0-0.15,0.01-0.363,0.031-0.639c0.02-0.275,0.029-0.465,0.029-0.564l-0.016-2.844l-6.633-0.138c-1.373,0-2.326-0.038-2.857-0.112
		c-0.912-0.126-1.369-0.422-1.369-0.891c0-0.375,0.275-0.852,0.828-1.428l1.293-1.278l7.4-8.996
		c0.672-0.776,1.523-1.165,2.557-1.165c1.133,0,1.699,0.41,1.699,1.228v10.411c0.172-0.008,0.377-0.013,0.617-0.013
		c1.846,0,2.768,0.414,2.768,1.24c0,0.602-0.381,0.982-1.143,1.141C587.563,301.032,586.816,301.053,585.662,301.02z
		 M582.744,290.42c-2.676,3.558-4.768,6.223-6.271,7.993l6.271,0.125V290.42z"/>
</g>
<g class="st0">
	<path class="st12" d="M372.91,306.635c-0.251,0-0.604-0.064-1.061-0.194c-0.456-0.13-0.805-0.194-1.045-0.194
		c-0.511,0-1.278,0.025-2.301,0.075s-1.795,0.075-2.316,0.075c-0.392,0-0.97,0.042-1.738,0.125
		c-0.767,0.084-1.346,0.125-1.737,0.125c-0.11,0-0.271-0.016-0.481-0.049c-0.211-0.033-0.371-0.051-0.481-0.051
		c-0.692,0-1.143-0.279-1.354-0.84c-0.121-0.292-0.181-0.793-0.181-1.503c0-1.946,0.637-3.513,1.91-4.698
		c0.582-0.543,2.151-1.545,4.708-3.007c1.434-0.819,2.392-1.458,2.873-1.917c0.862-0.802,1.293-1.742,1.293-2.819
		c0-0.535-0.417-1.011-1.249-1.428c-0.732-0.376-1.449-0.564-2.151-0.564c-0.923,0-1.8,0.221-2.632,0.664l-2.151,1.403
		c-0.431,0.284-0.777,0.426-1.038,0.426c-1.033,0-1.549-0.342-1.549-1.027c0-0.393,0.19-0.731,0.571-1.015
		c1.173-0.918,2.191-1.583,3.054-1.992c1.213-0.576,2.461-0.865,3.745-0.865c1.625,0,3.073,0.368,4.347,1.103
		c1.423,0.827,2.136,1.888,2.136,3.183c0,0.852-0.146,1.637-0.436,2.355c-0.291,0.718-0.732,1.374-1.324,1.967
		c-0.752,0.752-2.026,1.591-3.821,2.518c-1.885,0.986-3.124,1.734-3.715,2.244c-1.113,0.96-1.66,2.125-1.64,3.495l3.099-0.238
		c2.125-0.101,3.645-0.15,4.557-0.15c0.762,0,1.484,0.108,2.166,0.325c0.903,0.293,1.354,0.698,1.354,1.216
		c0,0.325-0.135,0.616-0.406,0.87C373.647,306.508,373.311,306.635,372.91,306.635z"/>
</g>
</svg>
